#!OML:ASF E:/inclinewalkrobotboard/Project1/Captureday1/Session1/subject1.ASF
:FULLY-SPECIFIED
:DEGREES
101
root 0 0 0 76.31285113408231 -27.41349215830053 -45.4525171053178
lowerback -11.18755022959477 7.862770001941991 9.564401439929686
upperback -20.515332848488384 10.073666483332355 2.9576462575795985
thorax -15.45511241039933 3.970011452354262 -1.7115533187469234
lowerneck -7.546008256819539 9.772466439467918 5.411675673797097
upperneck 11.708858765200317 11.681309254180883 7.28777429990331
head 4.804538365069979 6.26769763657877 2.0770125697459543
rclavicle 6.026952378352806E-15 -3.4124233502420144E-15
rhumerus 108.15396854983503 -24.80228797741442 -114.39500744150556
rradius 0.9648007939647734
rwrist 69.26559821985708
rhand 14.006247994771321 -12.719672599826565
rfingers 7.125020000000016
rthumb 38.98595949115376 -38.557710594481065
lclavicle -6.657785491654727E-16 1.4720548714599015E-15
lhumerus -0.21285597998940986 24.994009047720713 1.7665763619841073
lradius 9.286963344126008
lwrist -41.48005302490978
lhand 12.043943399983052 36.71353338719794
lfingers 7.125020000000046
lthumb 37.15364479878452 63.81333706974519
rfemur 183.17731261387866 -219.5725648876235 -191.88902938529654
rtibia 67.63134307847656
rfoot -21.910716522204396 -10.330873206007006
rtoes 49.618310156534655
lfemur -109.12540356174495 35.71057781539568 -24.026242798190708
ltibia 67.57983499718324
lfoot -38.664209515167734 35.602357805834956
ltoes 39.06946072620913
102
root 0 0 0 76.31243341126812 -27.417492257200298 -45.45125679986141
lowerback -11.188487645934138 7.862737937758533 9.563861402501615
upperback -20.514881554923665 10.07364641424552 2.9572765505267813
thorax -15.454122668869315 3.9700489811691613 -1.7116762963649803
lowerneck -7.546577322916854 9.772126501970565 5.41181430963068
upperneck 11.71073604462003 11.680628690949824 7.287639815710257
head 4.80531962084295 6.267425866388926 2.0769700909166167
rclavicle 6.031937560705247E-15 -3.4042416913365686E-15
rhumerus 108.08591924791851 -24.779880411629673 -114.38651277115034
rradius 0.9448770470647219
rwrist 69.28225921628878
rhand 14.030038711933848 -12.730978493077034
rfingers 7.125020000000016
rthumb 39.008628132453964 -38.564658059082134
lclavicle -6.705270353270386E-16 1.4817861102895369E-15
lhumerus -0.2215282305163111 25.02663683074784 1.7929515254008663
lradius 9.267794076453132
lwrist -41.48956136847886
lhand 12.038594276137525 36.704874481622184
lfingers 7.125020000000046
lthumb 37.14869851862771 63.806617737871136
rfemur 183.153175379559 -219.58431624586422 -191.90120030883912
rtibia 67.60274749622246
rfoot -22.02087372307914 -10.302362359871918
rtoes 49.65433035996759
lfemur -109.18177833693397 35.716787366125395 -24.055070423530132
ltibia 67.6914643242248
lfoot -38.609802338432985 35.59664063436296
ltoes 39.03887808926761
103
root 0 0 0 76.31778453667144 -27.39191966696673 -45.45925788590253
lowerback -11.190493790566741 7.862383264272967 9.569160244057507
upperback -20.519128005981017 10.073426466031977 2.9612015346443723
thorax -15.457059887753353 3.9696272243247597 -1.7103678574053607
lowerneck -7.539448835218778 9.77154687168479 5.4107171948227
upperneck 11.712802828498495 11.680344006109975 7.287537495405498
head 4.805134999749394 6.267069418634738 2.0767258669039954
rclavicle 6.1121017590635296E-15 -3.3254224889089453E-15
rhumerus 108.09963774489016 -24.761307578100052 -114.36699727478069
rradius 0.9876510673204386
rwrist 69.24008435792678
rhand 14.014681065639468 -12.715044766521254
rfingers 7.125020000000016
rthumb 38.99336047850484 -38.54940330878402
lclavicle -5.576958872515051E-16 1.5684995481328996E-15
lhumerus -0.5538321697642541 24.856666608400687 1.7756300757725825
lradius 9.346861106929893
lwrist -41.480917247258844
lhand 12.08380953856397 36.74111768460784
lfingers 7.125020000000047
lthumb 37.19156695803018 63.83202607477707
rfemur 183.141985554114 -219.64783177473402 -191.9428316209607
rtibia 67.52358692374182
rfoot -22.37120425565467 -10.130128486015144
rtoes 49.629711017153966
lfemur -109.25024235961308 35.73617229870308 -24.069043810918195
ltibia 67.64904135336907
lfoot -38.50686003535668 35.62767248057288
ltoes 39.05595897885523
104
root 0 0 0 76.31579812528037 -27.403562827666335 -45.45544931169463
lowerback -11.190858491758817 7.862515331440717 9.566958301890873
upperback -20.517930583359565 10.073488517678687 2.959957025780782
thorax -15.455851657407244 3.969813756213811 -1.710414015431878
lowerneck -7.5416415920643 9.77205251122963 5.411205655582655
upperneck 11.711552449831851 11.680842145171066 7.288014257105518
head 4.804915185116529 6.267404740066476 2.0769689508310556
rclavicle 6.0650801275905075E-15 -3.399784286168906E-15
rhumerus 108.0824271577923 -24.76396255341097 -114.41253530412007
rradius 0.9574914568147364
rwrist 69.26623850129211
rhand 14.013103829198137 -12.716624307522062
rfingers 7.125020000000016
rthumb 38.992329020121076 -38.55223628943986
lclavicle -6.0983049546734E-16 1.4976838016674293E-15
lhumerus -0.37508731676124896 24.89818743060829 1.7420213713866488
lradius 9.324617120071835
lwrist -41.47134403987586
lhand 12.090835747979401 36.7375643299082
lfingers 7.125020000000047
lthumb 37.198339993049586 63.82837303423898
rfemur 183.1377239307426 -219.6464501524922 -191.95391846901288
rtibia 67.52479137833296
rfoot -22.3426777589195 -10.151973698361823
rtoes 49.686379497045344
lfemur -109.27782992002012 35.73813855302366 -24.075479503460528
ltibia 67.74320927975329
lfoot -38.48974397910629 35.60946095766805
ltoes 39.032924503777835
105
root 0 0 0 76.31547795160876 -27.40568890691241 -45.454665737555814
lowerback -11.191197856315169 7.862568335226742 9.566551861382212
upperback -20.517850289649402 10.073537013867936 2.9598239262323154
thorax -15.455644264673891 3.9698736606246996 -1.7103010488821901
lowerneck -7.541865924687046 9.772166289748942 5.411249939661205
upperneck 11.711108841492038 11.680975681594564 7.288246131624154
head 4.8047577901960805 6.267485395673375 2.0770600272890887
rclavicle 6.063217575192171E-15 -3.40032296927704E-15
rhumerus 108.0397335844217 -24.758070156327534 -114.43683532731426
rradius 0.9279155387690032
rwrist 69.29626218632393
rhand 14.0211225795234 -12.721330903354987
rfingers 7.125020000000016
rthumb 39.00021225962206 -38.55595410779357
lclavicle -6.343046609343063E-16 1.493266910291596E-15
lhumerus -0.2935381442403955 24.936028731862965 1.7393534945432165
lradius 9.306096376646579
lwrist -41.47378591159181
lhand 12.090950439322668 36.73080704494456
lfingers 7.125020000000047
lthumb 37.198560288323904 63.82274266073763
rfemur 183.11719579819885 -219.64046695682157 -191.9550949242623
rtibia 67.51298552601502
rfoot -22.362927823719424 -10.165207108628692
rtoes 49.725518172381186
lfemur -109.30416899110861 35.74110541169152 -24.09012939351532
ltibia 67.82258891569869
lfoot -38.46452404942911 35.59921071949721
ltoes 39.01040340274679
106
root 0 0 0 76.314740130265 -27.410449267853476 -45.45325514226211
lowerback -11.191447432826404 7.86260267384619 9.565734303030382
upperback -20.51711715744589 10.07357382088211 2.9591803235238414
thorax -15.454768826754297 3.969945672864055 -1.7105680207210625
lowerneck -7.543008607694405 9.771983152315249 5.411417734910953
upperneck 11.711995727777834 11.680546897806652 7.288147798287925
head 4.8052509408007404 6.267333268915641 2.0770499748129376
rclavicle 6.0585449189333606E-15 -3.3959883674994392E-15
rhumerus 108.01956146578145 -24.75053937529482 -114.45670565622608
rradius 0.9061160461659767
rwrist 69.32637103609284
rhand 14.029915772219681 -12.727519427757953
rfingers 7.125020000000016
rthumb 39.008745876431576 -38.5609145873907
lclavicle -6.547076614754746E-16 1.4970871790089244E-15
lhumerus -0.2573207087183107 24.980027305228106 1.7616396576321804
lradius 9.283321001042943
lwrist -41.48117814519938
lhand 12.080601366671287 36.72083772558439
lfingers 7.125020000000047
lthumb 37.18883003031733 63.81567971707098
rfemur 183.10014450647634 -219.64138306001604 -191.95971262460228
rtibia 67.4967458066252
rfoot -22.410453417074564 -10.159325207905662
rtoes 49.75559988701241
lfemur -109.33052572427462 35.74173045245537 -24.106746955983695
ltibia 67.89741807151565
lfoot -38.44451186332248 35.59200107474956
ltoes 38.98794053963252
107
root 0 0 0 76.31960146164877 -27.386059946088015 -45.46104123882798
lowerback -11.192541738461099 7.862314895770242 9.570690767880851
upperback -20.520883048210976 10.07341226045619 2.9626902900288044
thorax -15.45772496644273 3.9695586706807653 -1.709535708243787
lowerneck -7.536717121013234 9.771509542081954 5.410379885279491
upperneck 11.713262181092139 11.680417803581753 7.287988092901504
head 4.804894887471974 6.26705648244568 2.07681020798571
rclavicle 6.131730507331618E-15 -3.321798765454664E-15
rhumerus 108.09070500111086 -24.75076372191135 -114.46387083333309
rradius 0.9501544407132272
rwrist 69.29619700440436
rhand 13.996502025251822 -12.705036402580875
rfingers 7.125020000000016
rthumb 38.97644250199025 -38.54280308521909
lclavicle -5.513210252132065E-16 1.5777760426026496E-15
lhumerus -0.5542659765455458 24.82463419476754 1.7460342166629772
lradius 9.357495529493242
lwrist -41.47261988347079
lhand 12.116072758618403 36.75390854936956
lfingers 7.125020000000047
lthumb 37.22238489464392 63.83961919154182
rfemur 183.09971140814224 -219.69373971342048 -191.9918839300704
rtibia 67.43467597337943
rfoot -22.68727730477858 -10.011192753411489
rtoes 49.716520841826956
lfemur -109.36534689076154 35.755135617976755 -24.10767323619883
ltibia 67.81027096997116
lfoot -38.37947535747112 35.62271518740161
ltoes 39.015450594955
